<svg width="75" height="74" viewBox="0 0 75 74" fill="none" xmlns="http://www.w3.org/2000/svg">
<path d="M62.5669 12.3333H13.2336C9.84189 12.3333 7.06689 15.1083 7.06689 18.5V27.75H13.2336V18.5H62.5669V27.75H68.7336V18.5C68.7336 15.1083 65.9586 12.3333 62.5669 12.3333ZM62.5669 55.5H13.2336V46.25H7.06689V55.5C7.06689 58.8916 9.84189 61.6666 13.2336 61.6666H62.5669C65.9586 61.6666 68.7336 58.8916 68.7336 55.5V46.25H62.5669V55.5Z" fill="#F85F00"/>
<path d="M46.8111 23.2792C45.7627 21.1825 42.3402 21.1825 41.2919 23.2792L31.7336 42.4267L28.3111 35.6125C28.0582 35.1013 27.667 34.6713 27.1819 34.3715C26.6967 34.0717 26.1372 33.9141 25.5669 33.9167H7.06689V40.0833H23.6552L28.9586 50.7208C29.5136 51.7692 30.5619 52.4167 31.7336 52.4167C32.9052 52.4167 33.9536 51.7692 34.4777 50.7208L44.0669 31.5733L47.4894 38.3875C48.0136 39.4358 49.0619 40.0833 50.2336 40.0833H68.7336V33.9167H52.1452L46.8111 23.2792Z" fill="#F85F00"/>
</svg>
