<svg width="81" height="80" viewBox="0 0 81 80" fill="none" xmlns="http://www.w3.org/2000/svg">
<path d="M63.1666 20.0334C62.5 18.0667 60.6333 16.6667 58.4333 16.6667H21.7666C19.5666 16.6667 17.7333 18.0667 17.0333 20.0334L10.1 40V66.6667C10.1 68.5 11.6 70 13.4333 70H16.7666C18.6 70 20.1 68.5 20.1 66.6667V63.3334H60.1V66.6667C60.1 68.5 61.6 70 63.4333 70H66.7666C68.6 70 70.1 68.5 70.1 66.6667V40L63.1666 20.0334ZM22.9333 23.3334H57.2333L60.8333 33.7H19.3333L22.9333 23.3334ZM63.4333 56.6667H16.7666V40H63.4333V56.6667Z" fill="#F85F00"/>
<path d="M25.1 53.3333C27.8614 53.3333 30.1 51.0947 30.1 48.3333C30.1 45.5719 27.8614 43.3333 25.1 43.3333C22.3386 43.3333 20.1 45.5719 20.1 48.3333C20.1 51.0947 22.3386 53.3333 25.1 53.3333Z" fill="#F85F00"/>
<path d="M55.1 53.3333C57.8614 53.3333 60.1 51.0947 60.1 48.3333C60.1 45.5719 57.8614 43.3333 55.1 43.3333C52.3386 43.3333 50.1 45.5719 50.1 48.3333C50.1 51.0947 52.3386 53.3333 55.1 53.3333Z" fill="#F85F00"/>
</svg>
