<svg width="83" height="82" viewBox="0 0 83 82" fill="none" xmlns="http://www.w3.org/2000/svg">
<path d="M10.9501 71.75V20.5C10.9501 17.6528 11.9466 15.2326 13.9397 13.2396C15.9327 11.2465 18.3529 10.25 21.2001 10.25H34.8667C37.714 10.25 40.1341 11.2465 42.1272 13.2396C44.1202 15.2326 45.1167 17.6528 45.1167 20.5V71.75H10.9501ZM34.8667 51.25H38.2834V34.1667H34.8667V51.25ZM17.7834 64.9167H38.2834V58.0833H34.8667C32.9876 58.0833 31.3795 57.4148 30.0424 56.0778C28.7031 54.7384 28.0334 53.1292 28.0334 51.25V34.1667C28.0334 32.2875 28.7031 30.6782 30.0424 29.3389C31.3795 28.0019 32.9876 27.3333 34.8667 27.3333H38.2834V20.5C38.2834 19.5319 37.9565 18.7199 37.3028 18.0639C36.6468 17.4102 35.8348 17.0833 34.8667 17.0833H21.2001C20.232 17.0833 19.42 17.4102 18.764 18.0639C18.1103 18.7199 17.7834 19.5319 17.7834 20.5V64.9167ZM59.4667 46.3812C57.9862 46.3812 56.5341 46.1819 55.1105 45.7833C53.6869 45.3847 52.2917 44.8722 50.9251 44.2458L53.0605 37.7542C54.1994 38.2667 55.3235 38.6938 56.4327 39.0354C57.5443 39.3771 58.5841 39.5479 59.5522 39.5479C60.2355 39.5479 60.9188 39.434 61.6022 39.2063C62.2855 38.9785 62.9973 38.6368 63.7376 38.1813C65.1042 37.2132 66.4709 36.5583 67.8376 36.2167C69.2042 35.875 70.514 35.7042 71.7667 35.7042C73.1903 35.7042 74.6561 35.8887 76.164 36.2577C77.6742 36.6289 79.0841 37.1278 80.3938 37.7542L78.2584 44.2458C76.9487 43.7903 75.7392 43.3917 74.6299 43.05C73.5184 42.7083 72.564 42.5375 71.7667 42.5375C71.0834 42.5375 70.3295 42.6651 69.5049 42.9202C68.6781 43.1776 67.8091 43.6194 66.898 44.2458C65.7022 45.0431 64.4915 45.5988 63.2661 45.9132C62.0429 46.2252 60.7765 46.3812 59.4667 46.3812ZM59.5522 33.0563C58.0716 33.0563 56.591 32.8569 55.1105 32.4583C53.6299 32.0597 52.2348 31.5472 50.9251 30.9208L53.0605 24.4292C54.541 25.0556 55.7938 25.5111 56.8188 25.7958C57.8438 26.0806 58.7549 26.2229 59.5522 26.2229C60.2355 26.2229 60.9188 26.1238 61.6022 25.9257C62.2855 25.7252 62.9973 25.3688 63.7376 24.8563C65.1612 23.8882 66.5427 23.2333 67.882 22.8917C69.219 22.55 70.514 22.3792 71.7667 22.3792C73.1903 22.3792 74.614 22.5648 76.0376 22.9361C77.4612 23.3051 78.9133 23.8028 80.3938 24.4292L78.2584 30.9208C76.7779 30.4083 75.5251 29.9961 74.5001 29.684C73.4751 29.3697 72.564 29.2125 71.7667 29.2125C71.0265 29.2125 70.2725 29.3264 69.5049 29.5542C68.735 29.7819 67.866 30.2375 66.898 30.9208C65.873 31.6611 64.7204 32.2021 63.4403 32.5437C62.1579 32.8854 60.8619 33.0563 59.5522 33.0563ZM59.5522 59.7063C58.0716 59.7063 56.6059 59.5069 55.1549 59.1083C53.7017 58.7097 52.2917 58.1972 50.9251 57.5708L53.0605 51.0792C54.3133 51.6486 55.4806 52.0894 56.5626 52.4014C57.6445 52.7158 58.641 52.8729 59.5522 52.8729C60.2355 52.8729 60.9188 52.7727 61.6022 52.5723C62.2855 52.3741 62.9973 52.0187 63.7376 51.5062C65.0473 50.5951 66.4424 49.9539 67.923 49.5827C69.4035 49.2137 70.7133 49.0292 71.8522 49.0292C73.2758 49.0292 74.7279 49.2285 76.2084 49.6271C77.689 50.0257 79.0841 50.5097 80.3938 51.0792L78.2584 57.5708C76.7779 57.0583 75.5103 56.6461 74.4557 56.334C73.4033 56.0197 72.507 55.8625 71.7667 55.8625C70.9695 55.8625 70.1586 55.9901 69.3341 56.2452C68.5072 56.5026 67.6952 56.9444 66.898 57.5708C65.9299 58.2542 64.8047 58.7803 63.5223 59.1493C62.2422 59.5206 60.9188 59.7063 59.5522 59.7063ZM38.2834 64.9167V19.7723V20.5V64.9167Z" fill="#F85F00"/>
</svg>
