<svg width="101" height="100" viewBox="0 0 101 100" fill="none" xmlns="http://www.w3.org/2000/svg">
<path d="M73.2799 42.92L72.1999 40.1L77.7799 38C75.0199 31.64 70.0999 26.54 63.9199 23.42L61.5199 28.76L58.7599 27.5L61.1599 22.1C57.7999 20.78 54.1399 20 50.2999 20C47.1199 20 44.0599 20.66 41.1799 21.5L43.2199 27.02L40.3999 28.1L38.2999 22.52C31.9399 25.28 26.8399 30.2 23.7199 36.38L29.0599 38.78L27.7999 41.54L22.3999 39.14C21.0799 42.5 20.2999 46.16 20.2999 50C20.2999 53.18 20.9599 56.24 21.7999 59.12L27.3199 57.08L28.3999 59.9L22.8199 62C25.5799 68.36 30.4999 73.46 36.6799 76.58L39.0799 71.24L41.8399 72.5L39.4399 77.9C42.7999 79.22 46.4599 80 50.2999 80C53.4799 80 56.5399 79.34 59.4199 78.5L57.3799 72.98L60.1999 71.9L62.2999 77.48C68.6599 74.72 73.7599 69.8 76.8799 63.62L71.5399 61.22L72.7999 58.46L78.1999 60.86C79.5199 57.5 80.2999 53.84 80.2999 50C80.2999 46.82 79.6399 43.76 78.7999 40.88L73.2799 42.92ZM57.1999 66.62C48.0199 70.4 37.4599 66.08 33.6799 56.9C29.8999 47.72 34.2199 37.16 43.3999 33.38C52.5799 29.6 63.1399 33.92 66.9199 43.1C67.8311 45.282 68.3024 47.6224 68.3068 49.987C68.3112 52.3515 67.8486 54.6937 66.9454 56.879C66.0423 59.0643 64.7165 61.0498 63.0441 62.7214C61.3717 64.393 59.3857 65.7179 57.1999 66.62Z" fill="#F85F00"/>
</svg>
