<svg width="79" height="79" viewBox="0 0 79 79" fill="none" xmlns="http://www.w3.org/2000/svg">
<path d="M65.5779 24.107C65.3924 23.6486 65.0985 23.242 64.7214 22.9221C64.3443 22.6022 63.8952 22.3786 63.4127 22.2704C62.9302 22.1621 62.4286 22.1726 61.951 22.3007C61.4734 22.4289 61.034 22.671 60.6705 23.0063L50.7895 32.1328L47.5587 31.4398L46.858 28.2014L55.9772 18.3207C56.3124 17.9572 56.5545 17.5179 56.6827 17.0403C56.8109 16.5627 56.8213 16.0611 56.7131 15.5786C56.6049 15.0961 56.3812 14.647 56.0613 14.2699C55.7414 13.8928 55.3348 13.599 54.8764 13.4135C51.3661 11.9933 47.5165 11.6335 43.8038 12.3785C40.0911 13.1235 36.6783 14.9407 33.9877 17.6052C31.2971 20.2697 29.4468 23.6645 28.6657 27.3697C27.8846 31.0749 28.207 34.9277 29.5931 38.4516L14.7971 51.2419C14.741 51.2903 14.685 51.3413 14.634 51.3948C12.9369 53.1197 11.9902 55.4453 12.0001 57.865C12.0099 60.2847 12.9756 62.6025 14.6866 64.3135C16.3977 66.0245 18.7155 66.9901 21.1353 66.9999C23.5551 67.0098 25.8807 66.0631 27.6057 64.3661C27.6592 64.3151 27.7101 64.2591 27.7585 64.203L40.5391 49.4075C44.0649 50.7961 47.9207 51.1198 51.6287 50.3384C55.3367 49.557 58.7339 47.7048 61.3995 45.0114C64.065 42.3181 65.8817 38.9018 66.6244 35.1859C67.3671 31.4701 67.0033 27.618 65.5779 24.107ZM47.6224 44.6174C45.3834 44.6175 43.1808 44.0513 41.2194 42.9715C40.6058 42.6333 39.8946 42.516 39.205 42.6394C38.5153 42.7628 37.8889 43.1193 37.4306 43.6492L23.2155 60.0958C22.6411 60.6702 21.8621 60.9929 21.0498 60.9929C20.2374 60.9929 19.4584 60.6702 18.884 60.0958C18.3096 59.5214 17.9869 58.7424 17.9869 57.9301C17.9869 57.1178 18.3096 56.3388 18.884 55.7644L35.3412 41.56C35.872 41.1011 36.2288 40.4736 36.3518 39.7828C36.4747 39.0921 36.3563 38.38 36.0165 37.7662C34.9039 35.7487 34.3367 33.4759 34.3708 31.1722C34.4049 28.8686 35.0392 26.6136 36.211 24.6299C37.3828 22.6462 39.0517 21.0024 41.0529 19.8607C43.0541 18.719 45.3184 18.1188 47.6224 18.1194H47.8492L41.2958 25.2204C40.964 25.5803 40.7235 26.0146 40.5945 26.4868C40.4655 26.959 40.4517 27.4553 40.5544 27.9339L41.9965 34.6476C42.1202 35.2231 42.4075 35.7507 42.8238 36.1669C43.24 36.5832 43.7676 36.8704 44.3432 36.9942L51.057 38.4363C51.5357 38.5389 52.032 38.5252 52.5042 38.3961C52.9764 38.2671 53.4107 38.0266 53.7706 37.6948L60.8718 31.1442V31.371C60.8671 34.8832 59.4696 38.2501 56.9858 40.7333C54.502 43.2166 51.1347 44.6134 47.6224 44.6174Z" fill="#F85F00"/>
</svg>
