<?xml version="1.0" encoding="UTF-8" standalone="no"?>
<!-- Created with Inkscape (http://www.inkscape.org/) -->

<svg
   width="48mm"
   height="30mm"
   viewBox="0 0 48 30"
   version="1.1"
   id="svg5"
   inkscape:version="1.2 (dc2aedaf03, 2022-05-15)"
   sodipodi:docname="prescottsgarage.svg"
   xmlns:inkscape="http://www.inkscape.org/namespaces/inkscape"
   xmlns:sodipodi="http://sodipodi.sourceforge.net/DTD/sodipodi-0.dtd"
   xmlns="http://www.w3.org/2000/svg"
   xmlns:svg="http://www.w3.org/2000/svg">
  <sodipodi:namedview
     id="namedview7"
     pagecolor="#ffffff"
     bordercolor="#000000"
     borderopacity="0.25"
     inkscape:showpageshadow="2"
     inkscape:pageopacity="0.0"
     inkscape:pagecheckerboard="0"
     inkscape:deskcolor="#d1d1d1"
     inkscape:document-units="mm"
     showgrid="false"
     inkscape:zoom="4.1776836"
     inkscape:cx="67.381838"
     inkscape:cy="96.823991"
     inkscape:window-width="1920"
     inkscape:window-height="1010"
     inkscape:window-x="-6"
     inkscape:window-y="-6"
     inkscape:window-maximized="1"
     inkscape:current-layer="layer1" />
  <defs
     id="defs2" />
  <g
     inkscape:label="Layer 1"
     inkscape:groupmode="layer"
     id="layer1">
    <g
       aria-label="GARAGE"
       transform="scale(1.0056307,0.99440081)"
       id="text186-2"
       style="font-size:11.4634px;font-family:Mohave;-inkscape-font-specification:Mohave;text-align:center;letter-spacing:-0.654369px;text-anchor:middle;fill:#f85f00;stroke-width:0;stroke-linecap:square">
      <path
         d="m 12.221194,21.229107 q -0.968657,0 -1.547559,-0.584634 -0.57317,-0.584633 -0.57317,-1.536095 v -4.722921 q 0,-0.957194 0.57317,-1.536095 0.578902,-0.584634 1.547559,-0.584634 0.974389,0 1.547559,0.584634 0.57317,0.578901 0.57317,1.536095 v 0.458536 h -1.547559 v -0.458536 q 0,-0.257926 -0.149024,-0.412682 -0.149024,-0.160488 -0.424146,-0.160488 -0.275122,0 -0.424146,0.160488 -0.149024,0.154756 -0.149024,0.412682 v 4.722921 q 0,0.257926 0.149024,0.418414 0.149024,0.154756 0.424146,0.154756 0.275122,0 0.424146,-0.154756 0.149024,-0.160488 0.149024,-0.418414 V 18.294476 H 12.07217 v -1.547559 h 2.269753 v 2.361461 q 0,0.951462 -0.57317,1.536095 -0.57317,0.584634 -1.547559,0.584634 z"
         style="font-weight:bold;font-family:mohave;-inkscape-font-specification:'mohave Bold'"
         id="path338" />
      <path
         d="m 14.455593,21.045692 1.627803,-8.597549 h 1.673656 l 1.593413,8.597549 h -1.581949 l -0.194878,-1.341217 h -1.329754 l -0.206342,1.341217 z m 2.017559,-2.888776 h 0.871218 l -0.527316,-3.622435 h 0.206341 z"
         style="font-weight:bold;font-family:mohave;-inkscape-font-specification:'mohave Bold'"
         id="path340" />
      <path
         d="m 19.704883,21.045692 v -8.597549 h 2.120729 q 0.974389,0 1.547559,0.584633 0.57317,0.578902 0.57317,1.536096 v 1.375607 q 0,0.607561 -0.240731,1.071828 -0.240731,0.464268 -0.687804,0.750853 l -0.114634,-0.50439 q 0.498658,0.177683 0.768048,0.527317 0.275121,0.349634 0.275121,0.848291 v 2.407314 h -1.547559 v -2.407314 q 0,-0.257926 -0.149024,-0.412682 -0.149024,-0.160488 -0.424146,-0.160488 h -0.57317 v 2.980484 z m 1.547559,-4.528043 h 0.57317 q 0.275122,0 0.424146,-0.154755 0.149024,-0.160488 0.149024,-0.418415 v -1.375607 q 0,-0.257927 -0.149024,-0.412683 -0.149024,-0.160487 -0.424146,-0.160487 h -0.57317 z"
         style="font-weight:bold;font-family:mohave;-inkscape-font-specification:'mohave Bold'"
         id="path342" />
      <path
         d="m 24.163188,21.045692 1.627802,-8.597549 h 1.673657 l 1.593412,8.597549 H 27.47611 l -0.194878,-1.341217 h -1.329754 l -0.206341,1.341217 z m 2.017558,-2.888776 h 0.871218 l -0.527316,-3.622435 h 0.206341 z"
         style="font-weight:bold;font-family:mohave;-inkscape-font-specification:'mohave Bold'"
         id="path344" />
      <path
         d="m 31.177836,21.229107 q -0.968657,0 -1.547559,-0.584634 -0.57317,-0.584633 -0.57317,-1.536095 v -4.722921 q 0,-0.957194 0.57317,-1.536095 0.578902,-0.584634 1.547559,-0.584634 0.974389,0 1.547559,0.584634 0.57317,0.578901 0.57317,1.536095 v 0.458536 h -1.547559 v -0.458536 q 0,-0.257926 -0.149024,-0.412682 -0.149024,-0.160488 -0.424146,-0.160488 -0.275121,0 -0.424146,0.160488 -0.149024,0.154756 -0.149024,0.412682 v 4.722921 q 0,0.257926 0.149024,0.418414 0.149025,0.154756 0.424146,0.154756 0.275122,0 0.424146,-0.154756 0.149024,-0.160488 0.149024,-0.418414 v -0.813902 h -0.722194 v -1.547559 h 2.269753 v 2.361461 q 0,0.951462 -0.57317,1.536095 -0.57317,0.584634 -1.547559,0.584634 z"
         style="font-weight:bold;font-family:mohave;-inkscape-font-specification:'mohave Bold'"
         id="path346" />
      <path
         d="m 37.630766,12.448143 v 1.547559 h -2.006095 v 1.719509 h 1.696583 v 1.547559 h -1.696583 v 2.235363 h 2.006095 v 1.547559 h -3.553654 v -8.597549 z"
         style="font-weight:bold;font-family:mohave;-inkscape-font-specification:'mohave Bold'"
         id="path348" />
    </g>
    <g
       id="g3649"
       transform="matrix(0.99128754,0,0,0.9802178,-77.267434,-69.807004)">
      <g
         aria-label="PRESCOT T'S"
         transform="translate(1.0133353,9.7903809)"
         id="text186-3"
         style="font-size:12.7px;font-family:Mohave;-inkscape-font-specification:Mohave;text-align:center;letter-spacing:-1.12448px;text-anchor:middle;fill:#f85f00;stroke-width:0;stroke-linecap:square">
        <path
           d="m 79.852422,74.718907 -2.919217,-9.066631 2.236436,-0.720073 q 1.027552,-0.330845 1.8305,0.09107 0.801003,0.415872 1.126009,1.42529 l 0.389229,1.208884 q 0.32306,1.003374 -0.08288,1.814519 -0.405936,0.811146 -1.433487,1.14199 l -0.604442,0.194615 1.08984,3.384875 z m 0.01669,-5.542328 0.604442,-0.194614 q 0.290132,-0.09342 0.394741,-0.307214 0.102663,-0.219844 0.01509,-0.491843 L 80.494157,66.974024 Q 80.40658,66.702025 80.196879,66.589425 79.985232,66.470781 79.6951,66.564196 l -0.604442,0.194615 z"
           style="font-weight:bold;font-family:mohave;-inkscape-font-specification:'mohave Bold'"
           id="path1966" />
        <path
           d="m 84.472754,73.255356 -2.149132,-9.279378 2.288913,-0.530119 q 1.051663,-0.243568 1.816429,0.244154 0.763334,0.481536 1.002604,1.51464 l 0.343861,1.484701 q 0.151872,0.655743 0.0081,1.217005 -0.143769,0.561262 -0.554659,0.982329 l -0.249808,-0.515735 q 0.58262,0.06712 0.960772,0.377146 0.384338,0.308589 0.508987,0.846793 l 0.601757,2.598226 -1.670288,0.386844 -0.601757,-2.598226 q -0.06447,-0.278381 -0.264001,-0.408159 -0.200959,-0.135963 -0.497899,-0.06719 l -0.618626,0.143276 0.745033,3.216851 z m 0.538412,-5.273982 0.618625,-0.143276 q 0.29694,-0.06877 0.419098,-0.273052 0.120726,-0.210467 0.05625,-0.488848 L 85.76128,65.591497 q -0.06447,-0.278381 -0.264001,-0.408158 -0.20096,-0.135964 -0.4979,-0.06719 l -0.618625,0.143276 z"
           style="font-weight:bold;font-family:mohave;-inkscape-font-specification:'mohave Bold'"
           id="path1968" />
        <path
           d="m 92.098598,62.106624 0.255421,1.695367 -2.197699,0.331101 0.283801,1.883742 1.858625,-0.280017 0.255421,1.695367 -1.858625,0.280017 0.368941,2.448864 2.197699,-0.331101 0.255421,1.695367 -3.893066,0.586522 -1.419005,-9.418707 z"
           style="font-weight:bold;font-family:mohave;-inkscape-font-specification:'mohave Bold'"
           id="path1970" />
        <path
           d="m 95.933296,71.536075 q -1.070024,0.08184 -1.758903,-0.515057 -0.682548,-0.597385 -0.762939,-1.648415 l -0.03874,-0.50652 1.709507,-0.130757 0.03874,0.50652 q 0.02179,0.284918 0.199972,0.449609 0.177694,0.158359 0.481607,0.135113 0.303912,-0.02324 0.455455,-0.206787 0.15106,-0.189874 0.129267,-0.474792 l -0.07458,-0.975051 q -0.01259,-0.16462 -0.03252,-0.258624 -0.01993,-0.094 -0.08127,-0.146629 -0.05501,-0.05311 -0.191362,-0.08726 -0.130505,-0.04097 -0.376429,-0.09221 -0.900419,-0.198607 -1.395658,-0.345415 -0.495723,-0.15314 -0.721128,-0.35243 -0.225406,-0.19929 -0.295878,-0.537801 -0.06462,-0.345327 -0.109178,-0.927826 l -0.09686,-1.266301 q -0.08088,-1.057361 0.503362,-1.745272 0.590085,-0.694726 1.66011,-0.77657 1.076356,-0.08233 1.758903,0.515057 0.682064,0.591053 0.762939,1.648415 l 0.03874,0.50652 -1.709507,0.130757 -0.03874,-0.50652 q -0.02179,-0.284918 -0.199487,-0.443277 -0.178179,-0.164691 -0.482092,-0.141446 -0.303912,0.02325 -0.454971,0.21312 -0.151544,0.183542 -0.129751,0.468459 l 0.09686,1.266302 q 0.01259,0.164619 0.03252,0.258623 0.01993,0.094 0.07494,0.147113 0.06134,0.05262 0.198178,0.09311 0.136351,0.03415 0.375944,0.08588 0.900419,0.198607 1.396142,0.351747 0.495239,0.146808 0.720644,0.346098 0.225406,0.19929 0.290031,0.544617 0.07047,0.338511 0.115026,0.92101 l 0.07458,0.975052 q 0.08039,1.05103 -0.503362,1.745272 -0.583754,0.694242 -1.66011,0.77657 z"
           style="font-weight:bold;font-family:mohave;-inkscape-font-specification:'mohave Bold'"
           id="path1972" />
        <path
           d="m 103.21095,68.5011 -3.9e-4,0.508 q -7.9e-4,1.054099 -0.63628,1.70132 -0.63549,0.647221 -1.71499,0.646407 -1.073148,-8.1e-4 -1.71401,-0.648994 -0.634511,-0.648178 -0.633716,-1.702278 l 0.0039,-5.232398 q 8e-4,-1.06045 0.636284,-1.701321 0.641838,-0.647216 1.714982,-0.646406 1.0795,8.14e-4 1.71401,0.648993 0.63452,0.641828 0.63372,1.702278 l -3.8e-4,0.508 -1.7145,-0.0013 3.8e-4,-0.508 q 2.2e-4,-0.28575 -0.16475,-0.457325 -0.16497,-0.177924 -0.46977,-0.178154 -0.3048,-2.3e-4 -0.47003,0.177445 -0.16523,0.171326 -0.16545,0.457076 l -0.004,5.232398 q -2.1e-4,0.28575 0.16475,0.463675 0.16497,0.171574 0.46977,0.171804 0.3048,2.3e-4 0.47003,-0.171095 0.16524,-0.177676 0.16545,-0.463426 l 3.9e-4,-0.508 z"
           style="font-weight:bold;font-family:mohave;-inkscape-font-specification:'mohave Bold'"
           id="path1974" />
        <path
           d="m 105.63138,71.559251 q -1.06965,-0.08663 -1.65663,-0.783983 -0.58064,-0.696844 -0.49555,-1.747504 l 0.42236,-5.215325 q 0.0856,-1.05699 0.7703,-1.644989 0.69154,-0.593816 1.76119,-0.50719 1.07598,0.08714 1.65662,0.783982 0.58116,0.690515 0.49556,1.747505 l -0.42237,5.215325 q -0.0851,1.05066 -0.7703,1.644989 -0.68521,0.594328 -1.76118,0.50719 z m 0.13839,-1.708905 q 0.30381,0.0246 0.48221,-0.13296 0.17891,-0.163893 0.20198,-0.44871 l 0.42236,-5.215325 q 0.0231,-0.284818 -0.12765,-0.469035 -0.15021,-0.190547 -0.45402,-0.215151 -0.3038,-0.0246 -0.48272,0.139289 -0.1784,0.157563 -0.20146,0.442381 l -0.42237,5.215325 q -0.0231,0.284818 0.12714,0.475365 0.15073,0.184217 0.45453,0.208821 z"
           style="font-weight:bold;font-family:mohave;-inkscape-font-specification:'mohave Bold'"
           id="path1976" />
        <path
           d="m 109.16351,71.736283 1.17998,-7.720852 -1.38097,-0.211054 0.25902,-1.694821 4.45676,0.681127 -0.25902,1.694821 -1.38097,-0.211053 -1.17998,7.720852 z"
           style="font-weight:bold;font-family:mohave;-inkscape-font-specification:'mohave Bold'"
           id="path1978" />
        <path
           d="m 113.22,72.437263 1.69466,-7.624438 -1.36373,-0.303109 0.372,-1.673657 4.4011,0.978216 -0.372,1.673657 -1.36372,-0.303109 -1.69465,7.624437 z"
           style="font-weight:bold;font-family:mohave;-inkscape-font-specification:'mohave Bold'"
           id="path1980" />
        <path
           d="m 117.73843,66.970731 1.33541,-2.924957 1.53014,0.422883 -1.33541,2.924956 z"
           style="font-weight:bold;font-family:mohave;-inkscape-font-specification:'mohave Bold'"
           id="path1982" />
        <path
           d="m 120.50792,74.651621 q -1.01492,-0.348685 -1.41103,-1.169627 -0.39009,-0.81888 -0.0476,-1.815787 l 0.16506,-0.480438 1.62147,0.55707 -0.16505,0.480437 q -0.0928,0.270246 0.006,0.492043 0.10044,0.215792 0.3887,0.314826 0.28826,0.09904 0.50011,-0.0095 0.21391,-0.114509 0.30676,-0.384755 l 0.31774,-0.924842 q 0.0536,-0.156142 0.0726,-0.250351 0.0189,-0.09421 -0.0165,-0.166826 -0.0295,-0.07055 -0.14114,-0.155921 -0.10361,-0.08931 -0.30912,-0.233771 -0.7481,-0.539017 -1.14469,-0.86998 -0.39451,-0.336969 -0.52255,-0.609241 -0.12803,-0.272272 -0.0587,-0.61101 0.0774,-0.34268 0.26726,-0.895183 l 0.41264,-1.201093 q 0.34456,-1.002913 1.15349,-1.403143 0.81701,-0.404172 1.83193,-0.05549 1.02093,0.350747 1.41103,1.169627 0.39216,0.812874 0.0476,1.815787 l -0.16506,0.480437 -1.62147,-0.55707 0.16505,-0.480437 q 0.0928,-0.270246 -0.008,-0.486037 -0.0984,-0.221797 -0.38663,-0.320832 -0.28826,-0.09903 -0.50218,0.01547 -0.21184,0.108504 -0.30469,0.37875 l -0.41264,1.201093 q -0.0536,0.156142 -0.0726,0.25035 -0.0189,0.09421 0.0105,0.164764 0.0355,0.07262 0.14509,0.163989 0.11167,0.08537 0.31118,0.227766 0.7481,0.539017 1.14262,0.875986 0.39659,0.330963 0.52462,0.603235 0.12803,0.272272 0.0506,0.614952 -0.0694,0.338738 -0.25919,0.891241 l -0.31774,0.924841 q -0.34249,0.996908 -1.15349,1.403143 -0.81099,0.406235 -1.83192,0.05549 z"
           style="font-weight:bold;font-family:mohave;-inkscape-font-specification:'mohave Bold'"
           id="path1984" />
      </g>
    </g>
    <g
       aria-label="EST. 2005"
       transform="scale(1.0056307,0.99440081)"
       id="text2767"
       style="font-weight:bold;font-size:4.5207px;font-family:mohave;-inkscape-font-specification:'mohave Bold';text-align:center;text-anchor:middle;fill:#f85f00;stroke:#000000;stroke-width:0;stroke-linecap:square">
      <path
         d="m 8.6060485,26.670235 h 2.9380135 v 0.61365 H 9.3057858 v 0.6887 H 11.288007 V 28.54871 H 9.3057858 v 0.960207 h 2.2846312 v 0.611442 H 8.6060485 Z"
         style="font-family:'Krona One';-inkscape-font-specification:'Krona One Bold'"
         id="path351" />
      <path
         d="m 12.528551,29.093931 q 0.187626,0.105954 0.379668,0.192041 0.194249,0.08388 0.401742,0.14348 0.207493,0.05739 0.434852,0.08829 0.229567,0.0309 0.48783,0.0309 0.311239,0 0.529769,-0.03973 0.21853,-0.04194 0.355387,-0.112576 0.139065,-0.07284 0.200871,-0.172175 0.06401,-0.09933 0.06401,-0.216323 0,-0.187626 -0.156724,-0.295788 -0.156723,-0.110368 -0.483414,-0.110368 -0.14348,0 -0.30241,0.01987 -0.158931,0.01766 -0.322277,0.03973 -0.161138,0.02207 -0.320069,0.04194 -0.156723,0.01766 -0.295788,0.01766 -0.231774,0 -0.445889,-0.0596 -0.211908,-0.0596 -0.377461,-0.178797 -0.163346,-0.119199 -0.26047,-0.297996 -0.09713,-0.178797 -0.09713,-0.417193 0,-0.141272 0.03753,-0.280337 0.03973,-0.139064 0.123613,-0.264884 0.08609,-0.128028 0.220737,-0.236189 0.13465,-0.110369 0.324484,-0.189834 0.192041,-0.07947 0.441474,-0.123613 0.251641,-0.04636 0.57171,-0.04636 0.231774,0 0.465756,0.02649 0.233981,0.02428 0.454719,0.07064 0.222944,0.04635 0.42823,0.112576 0.205286,0.06401 0.381876,0.14348 l -0.306825,0.565087 q -0.145687,-0.06401 -0.313447,-0.116991 -0.167761,-0.05518 -0.350973,-0.09492 -0.183212,-0.03973 -0.379668,-0.06181 -0.194249,-0.02428 -0.397327,-0.02428 -0.289166,0 -0.476793,0.04194 -0.185419,0.04194 -0.295787,0.108161 -0.110369,0.06401 -0.154517,0.145687 -0.04194,0.07946 -0.04194,0.158931 0,0.154516 0.139065,0.253847 0.139064,0.09712 0.423815,0.09712 0.114784,0 0.262678,-0.01545 0.150101,-0.01766 0.313447,-0.03752 0.165553,-0.01987 0.33552,-0.03532 0.172176,-0.01766 0.333314,-0.01766 0.304617,0 0.538599,0.06843 0.236189,0.06843 0.39512,0.196456 0.15893,0.12582 0.240603,0.306825 0.08167,0.178797 0.08167,0.401741 0,0.297996 -0.139064,0.531977 -0.136858,0.231775 -0.392913,0.392913 -0.253848,0.158931 -0.61365,0.242811 -0.359801,0.08167 -0.801276,0.08167 -0.291373,0 -0.569502,-0.03753 -0.278129,-0.03532 -0.534184,-0.101539 -0.253848,-0.06843 -0.485623,-0.161138 -0.229566,-0.09492 -0.426023,-0.207493 z"
         style="font-family:'Krona One';-inkscape-font-specification:'Krona One Bold'"
         id="path353" />
      <path
         d="M 17.927785,27.283885 H 16.65413 v -0.61365 h 3.247046 v 0.61365 h -1.273654 v 2.836474 h -0.699737 z"
         style="font-family:'Krona One';-inkscape-font-specification:'Krona One Bold'"
         id="path355" />
      <path
         d="m 20.57884,29.738484 q 0,-0.08829 0.03532,-0.165553 0.03752,-0.07947 0.105954,-0.136857 0.06843,-0.0596 0.165553,-0.09271 0.09712,-0.03311 0.218529,-0.03311 0.121406,0 0.21853,0.03311 0.09712,0.03311 0.163346,0.09271 0.06843,0.05739 0.103747,0.136857 0.03752,0.07726 0.03752,0.165553 0,0.08829 -0.03752,0.16776 -0.03532,0.07726 -0.103747,0.13465 -0.06622,0.05739 -0.163346,0.0905 -0.09712,0.03532 -0.21853,0.03532 -0.121405,0 -0.218529,-0.03532 -0.09712,-0.03311 -0.165553,-0.0905 -0.06843,-0.05739 -0.105954,-0.13465 -0.03532,-0.07947 -0.03532,-0.16776 z"
         style="font-family:'Krona One';-inkscape-font-specification:'Krona One Bold'"
         id="path357" />
      <path
         d="m 24.037793,29.519954 1.216262,-0.834387 q 0.273715,-0.187627 0.448097,-0.326691 0.174383,-0.139065 0.273714,-0.247226 0.09933,-0.110369 0.136858,-0.198664 0.03752,-0.08829 0.03752,-0.176589 0,-0.10154 -0.04194,-0.189835 -0.04194,-0.08829 -0.132443,-0.154516 -0.08829,-0.06622 -0.229566,-0.103746 -0.139065,-0.03753 -0.333314,-0.03753 -0.282543,0 -0.56288,0.07947 -0.280336,0.07946 -0.571709,0.253848 l -0.322277,-0.52977 q 0.324484,-0.200871 0.701945,-0.313447 0.379668,-0.112576 0.796861,-0.112576 0.364217,0 0.631309,0.08829 0.2693,0.08609 0.443682,0.236189 0.17659,0.150101 0.262677,0.348765 0.08609,0.198664 0.08609,0.421608 0,0.172175 -0.05739,0.328899 -0.05739,0.156723 -0.200871,0.324484 -0.143479,0.16776 -0.388497,0.362009 -0.242811,0.192041 -0.61365,0.43706 l -0.503281,0.331106 h 1.889511 v 0.613649 h -2.966709 z"
         style="font-family:'Krona One';-inkscape-font-specification:'Krona One Bold'"
         id="path359" />
      <path
         d="m 27.611531,28.387572 q 0,-0.417194 0.12582,-0.7483 0.12582,-0.331106 0.357594,-0.560673 0.231774,-0.231774 0.56288,-0.353179 0.331106,-0.121406 0.741678,-0.121406 0.410571,0 0.741677,0.121406 0.331106,0.121405 0.56288,0.353179 0.231774,0.229567 0.357595,0.560673 0.12582,0.331106 0.12582,0.7483 0,0.417193 -0.12582,0.748299 -0.125821,0.331106 -0.357595,0.560673 -0.231774,0.229567 -0.56288,0.350972 -0.331106,0.121406 -0.741677,0.121406 -0.410572,0 -0.741678,-0.121406 -0.331106,-0.121405 -0.56288,-0.350972 -0.231774,-0.229567 -0.357594,-0.560673 -0.12582,-0.331106 -0.12582,-0.748299 z m 0.699737,-0.0022 q 0,0.282544 0.07505,0.498867 0.07726,0.216322 0.218529,0.364216 0.141272,0.145687 0.342143,0.222945 0.200871,0.07505 0.452512,0.07505 0.25164,0 0.452511,-0.07505 0.200871,-0.07726 0.342143,-0.222945 0.141272,-0.147894 0.216323,-0.364216 0.07726,-0.216323 0.07726,-0.498867 0,-0.280336 -0.07726,-0.494451 -0.07505,-0.216323 -0.216323,-0.364217 -0.141272,-0.147894 -0.342143,-0.222945 -0.200871,-0.07726 -0.452511,-0.07726 -0.251641,0 -0.452512,0.07726 -0.200871,0.07505 -0.342143,0.222945 -0.141271,0.147894 -0.218529,0.364217 -0.07505,0.214115 -0.07505,0.494451 z"
         style="font-family:'Krona One';-inkscape-font-specification:'Krona One Bold'"
         id="path361" />
      <path
         d="m 31.759184,28.387572 q 0,-0.417194 0.12582,-0.7483 0.125821,-0.331106 0.357595,-0.560673 0.231774,-0.231774 0.56288,-0.353179 0.331106,-0.121406 0.741677,-0.121406 0.410572,0 0.741678,0.121406 0.331106,0.121405 0.56288,0.353179 0.231774,0.229567 0.357594,0.560673 0.12582,0.331106 0.12582,0.7483 0,0.417193 -0.12582,0.748299 -0.12582,0.331106 -0.357594,0.560673 -0.231774,0.229567 -0.56288,0.350972 -0.331106,0.121406 -0.741678,0.121406 -0.410571,0 -0.741677,-0.121406 -0.331106,-0.121405 -0.56288,-0.350972 -0.231774,-0.229567 -0.357595,-0.560673 -0.12582,-0.331106 -0.12582,-0.748299 z m 0.699737,-0.0022 q 0,0.282544 0.07505,0.498867 0.07726,0.216322 0.21853,0.364216 0.141272,0.145687 0.342143,0.222945 0.200871,0.07505 0.452511,0.07505 0.251641,0 0.452512,-0.07505 0.200871,-0.07726 0.342143,-0.222945 0.141272,-0.147894 0.216322,-0.364216 0.07726,-0.216323 0.07726,-0.498867 0,-0.280336 -0.07726,-0.494451 -0.07505,-0.216323 -0.216322,-0.364217 -0.141272,-0.147894 -0.342143,-0.222945 -0.200871,-0.07726 -0.452512,-0.07726 -0.25164,0 -0.452511,0.07726 -0.200871,0.07505 -0.342143,0.222945 -0.141272,0.147894 -0.21853,0.364217 -0.07505,0.214115 -0.07505,0.494451 z"
         style="font-family:'Krona One';-inkscape-font-specification:'Krona One Bold'"
         id="path363" />
      <path
         d="m 36.20704,29.299217 q 0.125821,0.06401 0.271507,0.110368 0.147894,0.04415 0.30241,0.07505 0.156724,0.0309 0.313447,0.04636 0.158931,0.01324 0.309033,0.01324 0.264884,0 0.456926,-0.03752 0.194249,-0.03973 0.317862,-0.110369 0.12582,-0.07064 0.185419,-0.16776 0.06181,-0.09933 0.06181,-0.21853 0,-0.121406 -0.06401,-0.222945 -0.06181,-0.101539 -0.187627,-0.174382 -0.123613,-0.07284 -0.313447,-0.112576 -0.187627,-0.04194 -0.439267,-0.04194 -0.112576,0 -0.253848,0.01104 -0.141272,0.0088 -0.300203,0.0309 -0.158931,0.02207 -0.331106,0.06181 -0.172175,0.03752 -0.348765,0.09271 v -1.984429 h 2.64664 v 0.620272 h -1.99988 v 0.668834 q 0.165553,-0.03752 0.346558,-0.06181 0.181005,-0.02649 0.403949,-0.02649 0.364217,0 0.651175,0.07947 0.286959,0.07946 0.483415,0.227359 0.198664,0.147894 0.30241,0.357595 0.103747,0.207493 0.103747,0.465755 0,0.267092 -0.112576,0.483415 -0.110369,0.214115 -0.328899,0.366424 -0.216323,0.152309 -0.534184,0.233981 -0.315655,0.08167 -0.726226,0.08167 -0.211908,0 -0.421608,-0.02428 -0.207493,-0.02207 -0.403949,-0.06401 -0.196457,-0.04415 -0.377461,-0.105954 -0.178797,-0.06401 -0.335521,-0.143479 z"
         style="font-family:'Krona One';-inkscape-font-specification:'Krona One Bold'"
         id="path365" />
    </g>
    <rect
       style="fill:#f85f00;fill-opacity:1;stroke:#000000;stroke-width:0;stroke-linecap:square;stroke-dasharray:none;stroke-opacity:1"
       id="rect3549"
       width="41.957485"
       height="0.7921558"
       x="3.0212603"
       y="23.386572"
       rx="0.19825751" />
  </g>
</svg>
